<svg width="132" height="27" viewBox="0 0 132 27" fill="none" xmlns="http://www.w3.org/2000/svg">
<path d="M2.04 21V3.48H3.984L10.224 14.04H10.272L16.512 3.48H18.528V21H16.608V6.696H16.56L11.136 15.792H9.36L3.936 6.696H3.888V21H2.04ZM23.3621 8.52L27.0821 18.792H27.1301L31.2341 8.52H33.1061L25.6661 26.28H23.7941L26.1461 20.928L21.4181 8.52H23.3621ZM75.5599 4.8C74.4559 4.8 73.5999 5.048 72.9919 5.544C72.3839 6.024 72.0799 6.696 72.0799 7.56C72.0799 9.112 73.2159 10.232 75.4879 10.92C77.4719 11.496 78.8799 12.216 79.7119 13.08C80.5599 13.944 80.9839 15.064 80.9839 16.44C80.9839 17.992 80.4959 19.184 79.5199 20.016C78.5599 20.832 77.1839 21.24 75.3919 21.24C73.4079 21.24 71.6479 20.736 70.1119 19.728L70.6879 18.144C72.0799 19.136 73.6479 19.632 75.3919 19.632C76.5759 19.632 77.4799 19.36 78.1039 18.816C78.7439 18.272 79.0639 17.48 79.0639 16.44C79.0639 15.48 78.7919 14.72 78.2479 14.16C77.7199 13.584 76.7839 13.088 75.4399 12.672C71.9359 11.632 70.1839 9.928 70.1839 7.56C70.1839 6.248 70.6559 5.2 71.5999 4.416C72.5599 3.632 73.8799 3.24 75.5599 3.24C77.3679 3.24 79.0479 3.616 80.5999 4.368L80.1199 5.856C78.7279 5.152 77.2079 4.8 75.5599 4.8ZM87.4631 4.44V9H92.1911V10.44H87.4631V16.992C87.4631 18.112 87.6151 18.864 87.9191 19.248C88.2231 19.616 88.7911 19.8 89.6231 19.8C90.3591 19.8 91.0631 19.664 91.7351 19.392L92.0231 20.808C91.2071 21.096 90.3271 21.24 89.3831 21.24C88.0231 21.24 87.0631 20.952 86.5031 20.376C85.9431 19.784 85.6631 18.768 85.6631 17.328V10.44H82.9031V9H85.6631V4.44H87.4631ZM103.566 11.064C102.846 10.168 101.854 9.72 100.59 9.72C99.326 9.72 98.326 10.168 97.59 11.064C96.87 11.944 96.51 13.176 96.51 14.76C96.51 16.344 96.87 17.584 97.59 18.48C98.326 19.36 99.326 19.8 100.59 19.8C101.854 19.8 102.846 19.36 103.566 18.48C104.302 17.584 104.67 16.344 104.67 14.76C104.67 13.176 104.302 11.944 103.566 11.064ZM104.862 19.488C103.79 20.656 102.366 21.24 100.59 21.24C98.814 21.24 97.39 20.656 96.318 19.488C95.246 18.32 94.71 16.744 94.71 14.76C94.71 12.776 95.246 11.2 96.318 10.032C97.39 8.864 98.814 8.28 100.59 8.28C102.366 8.28 103.79 8.864 104.862 10.032C105.934 11.2 106.47 12.776 106.47 14.76C106.47 16.744 105.934 18.32 104.862 19.488ZM109.238 8.52H110.942L110.99 11.184H111.038C112.446 9.248 114.43 8.28 116.99 8.28V9.792C115.214 9.792 113.774 10.28 112.67 11.256C111.582 12.232 111.038 13.496 111.038 15.048V21H109.238V8.52ZM121.097 8.52L124.817 18.792H124.865L128.969 8.52H130.841L123.401 26.28H121.529L123.881 20.928L119.153 8.52H121.097Z" fill="#222222"/>
<path d="M45.9855 5.088H37.8975V11.04H45.5055V12.576H37.8975V21H35.9775V3.48H45.9855V5.088ZM50.4319 5.64V3H52.2799V5.64H50.4319ZM50.4319 21V8.52H52.2799V21H50.4319ZM56.8313 8.52H58.5113L58.5353 10.752H58.5833C59.0633 9.984 59.6713 9.384 60.4073 8.952C61.1593 8.504 61.9673 8.28 62.8313 8.28C64.2393 8.28 65.2793 8.72 65.9513 9.6C66.6393 10.464 66.9833 11.84 66.9833 13.728V21H65.2553V13.872C65.2553 12.32 65.0313 11.248 64.5833 10.656C64.1353 10.048 63.3673 9.744 62.2793 9.744C61.3513 9.744 60.5033 10.208 59.7353 11.136C58.9673 12.048 58.5833 13.112 58.5833 14.328V21H56.8313V8.52Z" fill="#EF8F3C"/>
</svg>
