<svg width="59" height="60" viewBox="0 0 59 60" fill="none" xmlns="http://www.w3.org/2000/svg">
<path d="M12.54 55.9666V12.2243C12.54 10.4987 13.9367 9.09985 15.6597 9.09985H48.4159C50.1388 9.09985 51.5356 10.4987 51.5356 12.2243V55.9666C51.5356 57.6921 50.1388 59.091 48.4159 59.091H15.6597C13.9367 59.091 12.54 57.6921 12.54 55.9666Z" fill="#E7EEF2"/>
<path fill-rule="evenodd" clip-rule="evenodd" d="M15.6596 9.62055C14.2239 9.62055 13.06 10.7863 13.06 12.2243V55.9665C13.06 57.4045 14.2239 58.5703 15.6596 58.5703H48.4158C49.8516 58.5703 51.0156 57.4045 51.0156 55.9665V12.2243C51.0156 10.7863 49.8516 9.62055 48.4158 9.62055H15.6596ZM12.02 12.2243C12.02 10.2111 13.6495 8.5791 15.6596 8.5791H48.4158C50.4259 8.5791 52.0554 10.2111 52.0554 12.2243V55.9665C52.0554 57.9797 50.4259 59.6117 48.4158 59.6117H15.6596C13.6495 59.6117 12.02 57.9797 12.02 55.9665V12.2243Z" fill="black"/>
<path d="M15.6597 9.09985H48.4159C50.1388 9.09985 51.5356 10.4987 51.5356 12.2243V17.9524H12.54V12.2243C12.54 10.4987 13.9367 9.09985 15.6597 9.09985Z" fill="#BA7336"/>
<path fill-rule="evenodd" clip-rule="evenodd" d="M12.02 12.2243C12.02 10.2111 13.6495 8.5791 15.6596 8.5791H48.4158C50.4259 8.5791 52.0554 10.2111 52.0554 12.2243V18.4732H12.02V12.2243ZM15.6596 9.62055C14.2239 9.62055 13.06 10.7863 13.06 12.2243V17.4317H51.0156V12.2243C51.0156 10.7863 49.8516 9.62055 48.4158 9.62055H15.6596Z" fill="#081C35"/>
<path d="M17.7395 10.9224V7.27719C17.7395 6.27059 18.5542 5.45459 19.5592 5.45459C20.5643 5.45459 21.3791 6.27059 21.3791 7.27718V10.9224C21.3791 11.929 20.5643 12.745 19.5592 12.745C18.5542 12.745 17.7395 11.929 17.7395 10.9224Z" fill="#B5C7D3"/>
<path fill-rule="evenodd" clip-rule="evenodd" d="M19.5592 5.97532C18.8413 5.97532 18.2593 6.55817 18.2593 7.27717V10.9223C18.2593 11.6413 18.8413 12.2242 19.5592 12.2242C20.2771 12.2242 20.8591 11.6413 20.8591 10.9223V7.27717C20.8591 6.55817 20.2771 5.97532 19.5592 5.97532ZM17.2195 7.27717C17.2195 5.98298 18.2671 4.93384 19.5592 4.93384C20.8514 4.93384 21.8989 5.98298 21.8989 7.27717V10.9223C21.8989 12.2165 20.8514 13.2657 19.5592 13.2657C18.2671 13.2657 17.2195 12.2165 17.2195 10.9223V7.27717Z" fill="#081C35"/>
<path d="M26.0586 10.9224V7.27719C26.0586 6.27059 26.8733 5.45459 27.8784 5.45459C28.8834 5.45459 29.6982 6.27059 29.6982 7.27718V10.9224C29.6982 11.929 28.8834 12.745 27.8784 12.745C26.8733 12.745 26.0586 11.929 26.0586 10.9224Z" fill="#B5C7D3"/>
<path fill-rule="evenodd" clip-rule="evenodd" d="M27.8781 5.97532C27.1602 5.97532 26.5782 6.55817 26.5782 7.27717V10.9223C26.5782 11.6413 27.1602 12.2242 27.8781 12.2242C28.596 12.2242 29.1779 11.6413 29.1779 10.9223V7.27717C29.1779 6.55817 28.596 5.97532 27.8781 5.97532ZM25.5383 7.27717C25.5383 5.98298 26.5859 4.93384 27.8781 4.93384C29.1703 4.93384 30.2178 5.98298 30.2178 7.27717V10.9223C30.2178 12.2165 29.1703 13.2657 27.8781 13.2657C26.5859 13.2657 25.5383 12.2165 25.5383 10.9223V7.27717Z" fill="#081C35"/>
<path d="M34.3774 10.9224V7.27719C34.3774 6.27059 35.1922 5.45459 36.1973 5.45459C37.2023 5.45459 38.017 6.27059 38.017 7.27718V10.9224C38.017 11.929 37.2023 12.745 36.1973 12.745C35.1922 12.745 34.3774 11.929 34.3774 10.9224Z" fill="#B5C7D3"/>
<path fill-rule="evenodd" clip-rule="evenodd" d="M36.1974 5.97532C35.4795 5.97532 34.8975 6.55817 34.8975 7.27717V10.9223C34.8975 11.6413 35.4795 12.2242 36.1974 12.2242C36.9152 12.2242 37.4972 11.6413 37.4972 10.9223V7.27717C37.4972 6.55817 36.9152 5.97532 36.1974 5.97532ZM33.8577 7.27717C33.8577 5.98298 34.9051 4.93384 36.1974 4.93384C37.4896 4.93384 38.5371 5.98298 38.5371 7.27717V10.9223C38.5371 12.2165 37.4896 13.2657 36.1974 13.2657C34.9051 13.2657 33.8577 12.2165 33.8577 10.9223V7.27717Z" fill="#081C35"/>
<path d="M42.6963 10.9224V7.27719C42.6963 6.27059 43.511 5.45459 44.5161 5.45459C45.5211 5.45459 46.3359 6.27059 46.3359 7.27718V10.9224C46.3359 11.929 45.5211 12.745 44.5161 12.745C43.511 12.745 42.6963 11.929 42.6963 10.9224Z" fill="#B5C7D3"/>
<path fill-rule="evenodd" clip-rule="evenodd" d="M44.5162 5.97532C43.7984 5.97532 43.2164 6.55817 43.2164 7.27717V10.9223C43.2164 11.6413 43.7984 12.2242 44.5162 12.2242C45.2341 12.2242 45.8161 11.6413 45.8161 10.9223V7.27717C45.8161 6.55817 45.2341 5.97532 44.5162 5.97532ZM42.1765 7.27717C42.1765 5.98298 43.224 4.93384 44.5162 4.93384C45.8085 4.93384 46.8559 5.98298 46.8559 7.27717V10.9223C46.8559 12.2165 45.8085 13.2657 44.5162 13.2657C43.224 13.2657 42.1765 12.2165 42.1765 10.9223V7.27717Z" fill="#081C35"/>
<path fill-rule="evenodd" clip-rule="evenodd" d="M19.0615 24.0909C19.0615 23.8399 19.2683 23.6364 19.5234 23.6364H44.9228C45.1778 23.6364 45.3846 23.8399 45.3846 24.0909C45.3846 24.3419 45.1778 24.5454 44.9228 24.5454H19.5234C19.2683 24.5454 19.0615 24.3419 19.0615 24.0909Z" fill="#081C35"/>
<path fill-rule="evenodd" clip-rule="evenodd" d="M19.0615 27.7273C19.0615 27.4763 19.2683 27.2727 19.5234 27.2727H44.9228C45.1778 27.2727 45.3846 27.4763 45.3846 27.7273C45.3846 27.9783 45.1778 28.1818 44.9228 28.1818H19.5234C19.2683 28.1818 19.0615 27.9783 19.0615 27.7273Z" fill="#081C35"/>
<path fill-rule="evenodd" clip-rule="evenodd" d="M19.0615 35C19.0615 34.749 19.2683 34.5454 19.5234 34.5454H44.9228C45.1778 34.5454 45.3846 34.749 45.3846 35C45.3846 35.251 45.1778 35.4545 44.9228 35.4545H19.5234C19.2683 35.4545 19.0615 35.251 19.0615 35Z" fill="#081C35"/>
<path fill-rule="evenodd" clip-rule="evenodd" d="M28.1384 42.2728C28.1384 42.0218 28.3655 41.8182 28.6456 41.8182H44.8774C45.1575 41.8182 45.3846 42.0218 45.3846 42.2728C45.3846 42.5238 45.1575 42.7273 44.8774 42.7273H28.6456C28.3655 42.7273 28.1384 42.5238 28.1384 42.2728Z" fill="#081C35"/>
<path fill-rule="evenodd" clip-rule="evenodd" d="M19.0615 31.3636C19.0615 31.1126 19.2683 30.9091 19.5234 30.9091H44.9228C45.1778 30.9091 45.3846 31.1126 45.3846 31.3636C45.3846 31.6146 45.1778 31.8181 44.9228 31.8181H19.5234C19.2683 31.8181 19.0615 31.6146 19.0615 31.3636Z" fill="#081C35"/>
<path fill-rule="evenodd" clip-rule="evenodd" d="M19.0615 38.6363C19.0615 38.3853 19.2683 38.1818 19.5234 38.1818H44.9228C45.1778 38.1818 45.3846 38.3853 45.3846 38.6363C45.3846 38.8873 45.1778 39.0909 44.9228 39.0909H19.5234C19.2683 39.0909 19.0615 38.8873 19.0615 38.6363Z" fill="#081C35"/>
<path d="M18.9466 51.2405L22.7885 47.8883C22.8101 47.8694 22.8124 47.8364 22.7935 47.8147L9.849 32.9341L5.92871 36.3547L18.8733 51.2354C18.8922 51.2572 18.9249 51.2594 18.9466 51.2405Z" fill="#EF8F3C"/>
<path fill-rule="evenodd" clip-rule="evenodd" d="M5.19531 36.3041L9.89967 32.1992L23.1857 47.4726C23.3932 47.7111 23.3684 48.0729 23.1302 48.2808L19.2883 51.633C19.0502 51.8409 18.6889 51.8159 18.4815 51.5774L5.19531 36.3041ZM6.66246 36.4052L18.9581 50.5399L22.0942 47.8034L9.79865 33.6687L6.66246 36.4052Z" fill="#081C35"/>
<path d="M18.9218 51.2626L22.8137 47.8666C22.8199 47.8613 22.8295 47.8648 22.8309 47.8729L23.5477 52.3766C23.5719 52.5286 23.4288 52.6534 23.2818 52.6086L18.9255 51.2804C18.9177 51.2781 18.9156 51.2681 18.9218 51.2626Z" fill="#EF8F3C"/>
<path fill-rule="evenodd" clip-rule="evenodd" d="M18.774 51.7786C18.3756 51.657 18.2661 51.144 18.5802 50.8699L22.4722 47.4739C22.7862 47.1998 23.2786 47.3787 23.3443 47.7907L24.0611 52.2945C24.1458 52.8265 23.6449 53.2635 23.1303 53.1066L18.774 51.7786ZM19.9564 51.0504L22.9556 51.9647L22.4621 48.864L19.9564 51.0504Z" fill="#081C35"/>
<path d="M7.35789 31.6548L5.00573 33.7072C4.57271 34.085 4.52751 34.743 4.90477 35.1767L5.9294 36.3545L9.84966 32.9339L8.82503 31.756C8.44778 31.3222 7.79092 31.277 7.35789 31.6548Z" fill="#EF8F3C"/>
<path fill-rule="evenodd" clip-rule="evenodd" d="M4.51242 35.5187C3.94654 34.8681 4.01434 33.8813 4.66387 33.3146L7.01603 31.2621C7.66556 30.6954 8.65085 30.7633 9.21675 31.4138L10.5829 32.9843L5.87861 37.0892L4.51242 35.5187ZM5.34696 34.0999C5.13045 34.2888 5.10785 34.6177 5.29647 34.8345L5.97957 35.6198L9.11582 32.8832L8.43269 32.098C8.24406 31.8811 7.91563 31.8585 7.69912 32.0474L5.34696 34.0999Z" fill="#081C35"/>
</svg>
