<svg width="68" height="68" viewBox="0 0 68 68" fill="none" xmlns="http://www.w3.org/2000/svg">
<path d="M34.2602 41.2974L51.7846 31.2417V51.961L33.9999 62.1661L16.2153 51.961V31.2417L33.7397 41.2974L33.9999 41.4468L34.2602 41.2974Z" fill="#EF8F3C" stroke="#081C35"/>
<path d="M34 7.90784L64.8077 23.311L34 41.2409L3.19214 23.311L34 7.90784ZM64.9751 23.2136L64.9748 23.2138C64.9749 23.2137 64.975 23.2137 64.9751 23.2136L65.0277 23.3041L64.9751 23.2136Z" fill="#EF8F3C"/>
<path d="M64.9751 23.2136L64.9748 23.2138C64.9749 23.2137 64.975 23.2137 64.9751 23.2136ZM64.9751 23.2136L65.0277 23.3041L64.9751 23.2136ZM34 7.90784L64.8077 23.311L34 41.2409L3.19214 23.311L34 7.90784Z" stroke="#081C35"/>
<path d="M63.2922 32.4308C63.2922 31.5642 63.9948 30.8616 64.8615 30.8616C65.7281 30.8616 66.4307 31.5642 66.4307 32.4308V35.0462H63.2922V32.4308Z" fill="#E7EEF2" stroke="#081C35"/>
<path d="M64.8616 23.1833V30.8615" stroke="#081C35"/>
</svg>
