<svg width="46" height="43" viewBox="0 0 46 43" fill="none" xmlns="http://www.w3.org/2000/svg">
<path d="M11.1387 13.1708C11.6028 12.9701 11.9191 12.7267 12.0284 12.5283C12.2057 12.2067 12.3154 11.9038 12.3732 11.6737C12.3951 11.5863 12.4085 11.514 12.4157 11.4588C12.3798 11.4312 12.3351 11.3993 12.2753 11.3575C12.2625 11.3485 12.249 11.339 12.2349 11.3292C12.1829 11.293 12.1232 11.2514 12.0607 11.2064L11.1387 13.1708ZM11.1387 13.1708C10.6895 13.365 10.2462 13.4573 10.0229 13.4547L11.1387 13.1708ZM34.6754 16.1545C27.3599 14.9772 20.451 19.9445 19.276 27.2277M30.4227 42.5819C37.7367 43.7589 44.6456 38.7917 45.8207 31.5084M21.5173 27.5884C22.4945 21.5353 28.2355 17.4066 34.3209 18.3859M43.5793 31.1477C42.6022 37.2009 36.8609 41.331 30.7814 40.3527M2.97752 0.707852C3.17872 0.739591 3.37919 0.775725 3.5788 0.816228L10.0222 13.4546C9.48059 13.447 8.84391 13.3736 8.19283 13.0459C7.74351 12.8188 7.17629 12.5255 6.46057 12.0721C3.71358 10.3283 2.16057 7.14611 1.83846 6.48608C1.81486 6.43772 1.79787 6.40291 1.7875 6.38318L1.7843 6.3771C1.7182 6.25148 1.47418 5.78769 1.27466 5.16936C1.06907 4.53225 0.927432 3.78096 1.03855 3.09049C1.24859 1.78522 1.97861 1.22278 2.36398 0.925866C2.39165 0.90455 2.41754 0.884602 2.44133 0.865846L2.4414 0.865929L2.44967 0.859142C2.52292 0.799036 2.60806 0.754522 2.6998 0.728547C2.78991 0.703037 2.8844 0.695978 2.97752 0.707852ZM9.9108 9.7433C9.93796 9.75635 9.97253 9.77466 10.0196 9.80093L10.0204 9.80135C10.1332 9.86406 10.5505 10.1473 11.0137 10.4692C11.4613 10.7804 11.9106 11.0985 12.0607 11.2064L9.9108 9.7433ZM12.4225 11.3625C12.4226 11.3624 12.4228 11.3642 12.4228 11.368C12.4225 11.3645 12.4224 11.3626 12.4225 11.3625Z" fill="#EF8F3C" stroke="#EF8F3C" stroke-width="1.09086"/>
</svg>
