<svg width="213" height="35" viewBox="0 0 213 35" fill="none" xmlns="http://www.w3.org/2000/svg">
<path d="M23.436 10.908H23.364L18.756 20.988H13.212L8.604 10.908H8.532V27H2.736V0.719999H9L15.948 16.2H16.02L22.968 0.719999H29.376V27H23.436V10.908ZM42.7897 21.492H42.8617L46.8937 8.28H52.9417L42.8617 34.92H36.8137L40.1257 27L33.0337 8.28H39.4057L42.7897 21.492ZM129.403 6.84C127.123 5.712 124.723 5.148 122.203 5.148C120.955 5.148 120.007 5.388 119.359 5.868C118.711 6.348 118.387 6.996 118.387 7.812C118.387 9.156 119.395 10.116 121.411 10.692C124.987 11.676 127.495 12.852 128.935 14.22C130.399 15.588 131.131 17.352 131.131 19.512C131.131 22.056 130.267 24 128.539 25.344C126.811 26.688 124.255 27.36 120.871 27.36C119.359 27.36 117.787 27.132 116.155 26.676C114.523 26.196 113.155 25.584 112.051 24.84L113.491 20.052C115.939 21.732 118.483 22.572 121.123 22.572C122.371 22.572 123.307 22.32 123.931 21.816C124.579 21.288 124.903 20.556 124.903 19.62C124.903 18.852 124.639 18.228 124.111 17.748C123.607 17.268 122.707 16.836 121.411 16.452C118.123 15.492 115.759 14.328 114.319 12.96C112.879 11.568 112.159 9.852 112.159 7.812C112.159 5.532 113.011 3.72 114.715 2.376C116.443 1.032 118.855 0.36 121.951 0.36C125.239 0.36 128.095 0.935999 130.519 2.088L129.403 6.84ZM143.067 9H149.187V13.068H143.067V19.8C143.067 21.096 143.223 21.96 143.535 22.392C143.847 22.824 144.411 23.04 145.227 23.04C146.259 23.04 147.339 22.848 148.467 22.464L149.115 26.64C147.411 27.12 145.659 27.36 143.859 27.36C141.555 27.36 139.863 26.844 138.783 25.812C137.727 24.78 137.199 23.1 137.199 20.772V13.068H133.347V9H137.199V2.16H143.067V9ZM154.879 10.548C156.583 8.796 158.935 7.92 161.935 7.92C164.935 7.92 167.275 8.796 168.955 10.548C170.659 12.276 171.511 14.64 171.511 17.64C171.511 20.64 170.659 23.016 168.955 24.768C167.275 26.496 164.935 27.36 161.935 27.36C158.935 27.36 156.583 26.496 154.879 24.768C153.175 23.016 152.323 20.64 152.323 17.64C152.323 14.64 153.175 12.276 154.879 10.548ZM161.935 23.148C164.527 23.148 165.823 21.312 165.823 17.64C165.823 13.968 164.527 12.132 161.935 12.132C159.319 12.132 158.011 13.968 158.011 17.64C158.011 21.312 159.319 23.148 161.935 23.148ZM174.993 8.28H180.465L180.501 11.88H180.573C182.661 9.24 185.517 7.92 189.141 7.92V12.528C186.453 12.528 184.401 13.104 182.985 14.256C181.569 15.408 180.861 16.98 180.861 18.972V27H174.993V8.28ZM201.485 21.492H201.557L205.589 8.28H211.637L201.557 34.92H195.509L198.821 27L191.729 8.28H198.101L201.485 21.492Z" fill="white"/>
<path d="M56.6305 0.719999H73.0825V5.652H62.7505V11.628H72.3625V16.236H62.7505V27H56.6305V0.719999ZM78.5455 4.68V-2.14577e-06H84.6295V4.68H78.5455ZM78.5455 27V8.28H84.6295V27H78.5455ZM90.2666 8.28H95.5946L95.7386 10.872H95.8106C96.5066 9.96 97.3586 9.24 98.3666 8.712C99.3986 8.184 100.455 7.92 101.535 7.92C103.791 7.92 105.435 8.58 106.467 9.9C107.499 11.22 108.015 13.476 108.015 16.668V27H102.327V17.28C102.327 15.336 102.123 14.04 101.715 13.392C101.307 12.72 100.587 12.384 99.5546 12.384C98.6666 12.384 97.8506 12.864 97.1066 13.824C96.3866 14.784 96.0266 15.9 96.0266 17.172V27H90.2666V8.28Z" fill="#EF8F3C"/>
</svg>
