<svg width="142" height="27" viewBox="0 0 142 27" fill="none" xmlns="http://www.w3.org/2000/svg">
<path d="M15.624 10.272H15.576L12.504 16.992H8.808L5.736 10.272H5.688V21H1.824V3.48H6L10.632 13.8H10.68L15.312 3.48H19.584V21H15.624V10.272ZM28.5264 17.328H28.5744L31.2624 8.52H35.2944L28.5744 26.28H24.5424L26.7504 21L22.0224 8.52H26.2704L28.5264 17.328ZM86.2686 7.56C84.7486 6.808 83.1486 6.432 81.4686 6.432C80.6366 6.432 80.0046 6.592 79.5726 6.912C79.1406 7.232 78.9246 7.664 78.9246 8.208C78.9246 9.104 79.5966 9.744 80.9406 10.128C83.3246 10.784 84.9966 11.568 85.9566 12.48C86.9326 13.392 87.4206 14.568 87.4206 16.008C87.4206 17.704 86.8446 19 85.6926 19.896C84.5406 20.792 82.8366 21.24 80.5806 21.24C79.5726 21.24 78.5246 21.088 77.4366 20.784C76.3486 20.464 75.4366 20.056 74.7006 19.56L75.6606 16.368C77.2926 17.488 78.9886 18.048 80.7486 18.048C81.5806 18.048 82.2046 17.88 82.6206 17.544C83.0526 17.192 83.2686 16.704 83.2686 16.08C83.2686 15.568 83.0926 15.152 82.7406 14.832C82.4046 14.512 81.8046 14.224 80.9406 13.968C78.7486 13.328 77.1726 12.552 76.2126 11.64C75.2526 10.712 74.7726 9.568 74.7726 8.208C74.7726 6.688 75.3406 5.48 76.4766 4.584C77.6286 3.688 79.2366 3.24 81.3006 3.24C83.4926 3.24 85.3966 3.624 87.0126 4.392L86.2686 7.56ZM95.3781 9H99.4581V11.712H95.3781V16.2C95.3781 17.064 95.4821 17.64 95.6901 17.928C95.8981 18.216 96.2741 18.36 96.8181 18.36C97.5061 18.36 98.2261 18.232 98.9781 17.976L99.4101 20.76C98.2741 21.08 97.1061 21.24 95.9061 21.24C94.3701 21.24 93.2421 20.896 92.5221 20.208C91.8181 19.52 91.4661 18.4 91.4661 16.848V11.712H88.8981V9H91.4661V4.44H95.3781V9ZM103.253 10.032C104.389 8.864 105.957 8.28 107.957 8.28C109.957 8.28 111.517 8.864 112.637 10.032C113.773 11.184 114.341 12.76 114.341 14.76C114.341 16.76 113.773 18.344 112.637 19.512C111.517 20.664 109.957 21.24 107.957 21.24C105.957 21.24 104.389 20.664 103.253 19.512C102.117 18.344 101.549 16.76 101.549 14.76C101.549 12.76 102.117 11.184 103.253 10.032ZM107.957 18.432C109.685 18.432 110.549 17.208 110.549 14.76C110.549 12.312 109.685 11.088 107.957 11.088C106.213 11.088 105.341 12.312 105.341 14.76C105.341 17.208 106.213 18.432 107.957 18.432ZM116.662 8.52H120.31L120.334 10.92H120.382C121.774 9.16 123.678 8.28 126.094 8.28V11.352C124.302 11.352 122.934 11.736 121.99 12.504C121.046 13.272 120.574 14.32 120.574 15.648V21H116.662V8.52ZM134.323 17.328H134.371L137.059 8.52H141.091L134.371 26.28H130.339L132.547 21L127.819 8.52H132.067L134.323 17.328Z" fill="#222222"/>
<path d="M37.7537 3.48H48.7217V6.768H41.8337V10.752H48.2417V13.824H41.8337V21H37.7537V3.48ZM52.3637 6.12V3H56.4197V6.12H52.3637ZM52.3637 21V8.52H56.4197V21H52.3637ZM60.1777 8.52H63.7298L63.8258 10.248H63.8738C64.3378 9.64 64.9058 9.16 65.5778 8.808C66.2658 8.456 66.9698 8.28 67.6898 8.28C69.1938 8.28 70.2898 8.72 70.9778 9.6C71.6658 10.48 72.0098 11.984 72.0098 14.112V21H68.2178V14.52C68.2178 13.224 68.0818 12.36 67.8098 11.928C67.5378 11.48 67.0578 11.256 66.3698 11.256C65.7778 11.256 65.2338 11.576 64.7378 12.216C64.2578 12.856 64.0178 13.6 64.0178 14.448V21H60.1777V8.52Z" fill="#EF8F3C"/>
</svg>
