<svg width="111" height="54" viewBox="0 0 111 54" fill="none" xmlns="http://www.w3.org/2000/svg">
<path d="M46.1166 13.6489C45.7308 13.6615 45.3455 13.6749 44.9605 13.6883C44.2224 13.7246 43.4851 13.777 42.7467 13.8521C41.272 14.0041 39.7985 14.2466 38.3447 14.6144C36.8917 14.981 35.4608 15.4736 34.0902 16.1162C33.7482 16.2778 33.4137 16.4561 33.0754 16.6255C32.7454 16.8142 32.4167 17.0026 32.088 17.1909C31.7696 17.3978 31.4509 17.6044 31.1322 17.8112C31.0299 17.8863 30.9273 17.9617 30.8238 18.0368C30.7212 17.9617 30.6179 17.8863 30.5147 17.8105C30.1962 17.6037 29.878 17.3971 29.5602 17.1903C29.2306 17.0015 28.9013 16.8136 28.5728 16.6248C28.2339 16.4554 27.8981 16.2778 27.5574 16.1155C26.1865 15.4729 24.7551 14.9804 23.3022 14.6144C21.8499 14.2466 20.3751 14.0041 18.9002 13.8514C18.162 13.777 17.4247 13.7246 16.6875 13.6872C16.3009 13.6749 15.9159 13.6615 15.5299 13.6489C14.8489 13.6404 14.1657 13.633 13.4841 13.6248H13.4805L13.472 13.6322V42.6024L13.4787 42.6091H13.4849C13.4849 42.6091 14.1519 42.6164 15.4869 42.632C15.6783 42.638 15.8933 42.6454 16.1329 42.6532C16.3526 42.6628 16.5958 42.6655 16.8588 42.6833C17.3849 42.713 17.9996 42.7546 18.6977 42.8259C20.0912 42.9675 21.8268 43.2253 23.8174 43.814C25.7948 44.4173 28.0478 45.3623 30.2098 47.0496C30.4152 46.7866 30.5171 46.6551 30.5171 46.6551C30.6195 46.5229 30.7217 46.3921 30.8238 46.2602C30.9257 46.1286 31.0287 45.9969 31.1302 45.8656C31.1302 45.8656 31.2335 45.7335 31.4371 45.4705C29.0323 43.5931 26.5381 42.5495 24.3904 41.8958C22.2271 41.258 20.3751 40.9853 18.9017 40.8345C18.1638 40.7598 17.5184 40.7152 16.9648 40.6847C16.4323 40.6639 15.9878 40.6461 15.6333 40.6323C15.525 40.631 15.4715 40.6305 15.4715 40.6305H15.4702V15.6497H15.4711L15.5888 15.6508C15.9237 15.663 16.2591 15.6746 16.5938 15.6876C17.2977 15.7225 17.998 15.7722 18.6957 15.8432C20.0899 15.9874 21.4685 16.2151 22.8137 16.555C24.1572 16.8941 25.4662 17.3459 26.7095 17.9286C27.0191 18.0753 27.3212 18.2369 27.6281 18.3896C27.9252 18.5587 28.2223 18.7295 28.5194 18.8993C28.806 19.0848 29.0936 19.2716 29.38 19.4576C29.8584 19.8091 30.3366 20.1608 30.8155 20.5126L30.8238 20.5186L30.832 20.513C31.3103 20.1613 31.7894 19.8098 32.2685 19.4576C32.5547 19.272 32.8413 19.0861 33.1282 18.8993C33.4253 18.7299 33.7224 18.5594 34.0188 18.39C34.3265 18.2369 34.6292 18.0758 34.9387 17.9286C36.1812 17.3459 37.4895 16.8945 38.834 16.555C40.178 16.2151 41.5579 15.9874 42.9523 15.8432C43.6491 15.7722 44.351 15.7225 45.0533 15.6876C45.3889 15.6746 45.7241 15.663 46.0594 15.6508L46.1769 15.6497H46.1774V38.6168H31.8232V36.6543H35.5943V36.1539V35.6535V35.1531V34.6528H31.8232V33.1762H33.3992L33.4106 33.1755C34.7244 33.1806 36.0363 32.6346 36.9614 31.6996C37.8943 30.7746 38.4397 29.4607 38.4348 28.145L38.4364 28.1319C38.4411 26.8162 37.8976 25.5016 36.9647 24.5751C36.0414 23.6394 34.73 23.0922 33.4159 23.0969L33.4039 23.0962H29.8446L29.8248 23.0969V31.174H26.9894V31.6746V32.1747V32.6758V33.1762H29.8248V34.6528H26.9883V35.1531V35.6535V36.1539V36.6543H29.8248V40.6031L29.8297 40.6194H48.1644H48.1764V40.6105V13.6299L48.1684 13.6253L48.1622 13.6248C47.4808 13.633 46.7987 13.6404 46.1166 13.6489ZM31.8232 25.0977H33.4039H33.4108C34.2079 25.0966 34.9888 25.4231 35.5505 25.9893C36.1151 26.5538 36.438 27.3355 36.4371 28.1334L36.4364 28.1412C36.438 28.9391 36.1135 29.7215 35.5485 30.2847C34.9854 30.8497 34.2057 31.1754 33.4088 31.1735L33.3992 31.174H31.8232V25.0977Z" fill="url(#paint0_linear_66_4)"/>
<path d="M30.194 47.0959V47.0389H30.0801V46.9818H30.0231V46.9248H29.9661V46.8677H29.8522V46.8107H29.7952V46.7536H29.7383V46.6965H29.6243V46.6395H29.5673V46.5824H29.4534V46.5254H29.3964V46.4683H29.2825V46.4112H29.2255V46.3542H29.1116V46.2971H29.0546V46.2401H28.9407V46.183H28.8837V46.126H28.7698V46.0689H28.7128V46.0118H28.5989V45.9548H28.4849V45.8977H28.4279V45.8407H28.314V45.7836H28.2001V45.7265H28.0861V45.6695H27.9722V45.6124H27.8582V45.5554H27.8013V45.4983H27.6873V45.4413H27.5734V45.3842H27.4595V45.3271H27.3455V45.2701H27.2886V45.213H27.1746V45.156H27.0607V45.0989H26.9467V45.0418H26.8328V44.9848H26.6619V44.9277H26.5479V44.8707H26.434V44.8136H26.3201V44.7566H26.1492V44.6995H26.0352V44.6424H25.9213V44.5854H25.7504V44.5283H25.6364V44.4713H25.5225V44.4142H25.3516V44.3571H25.2376V44.3001H25.0667V44.243H24.8958V44.186H24.7249V44.1289H24.554V44.0719H24.3831V44.0148H24.2691V43.9577H24.0982V43.9007H23.8704V43.8436H23.6995V43.7866H23.5285V43.7295H23.3007V43.6724H23.0728V43.6154H22.8449V43.5583H22.617V43.5013H22.3891V43.4442H22.1613V43.3872H21.8764V43.3301H21.5916V43.273H21.3067V43.216H21.0219V43.1589H20.6801V43.1019H20.3382V43.0448H19.9964V42.9877H19.5407V42.9307H19.0849V42.8736H18.5722V42.8166H17.9455V42.7595H17.1479V42.7025H15.8376V42.6454H13.4449V13.6027H15.8946V13.6598H17.1479V13.7168H17.9455V13.7739H18.7431V13.8309H19.2558V13.888H19.7116V13.9451H20.1104V14.0021H20.5091V14.0592H20.9079V14.1162H21.2497V14.1733H21.5346V14.2304H21.8194V14.2874H22.1043V14.3445H22.3891V14.4015H22.674V14.4586H22.9588V14.5156H23.1867V14.5727H23.4146V14.6298H23.6425V14.6868H23.8134V14.7439H23.9843V14.8009H24.2122V14.858H24.3831V14.9151H24.554V14.9721H24.7249V15.0292H24.8958V15.0862H25.1237V15.1433H25.2946V15.2003H25.4655V15.2574H25.6364V15.3145H25.7504V15.3715H25.9213V15.4286H26.0352V15.4856H26.2061V15.5427H26.3201V15.5998H26.491V15.6568H26.6049V15.7139H26.7758V15.7709H26.9467V15.828H27.0607V15.885H27.2316V15.9421H27.3455V15.9992H27.4595V16.0562H27.5734V16.1133H27.6873V16.1703H27.8013V16.2274H27.9152V16.2845H28.0292V16.3415H28.1431V16.3986H28.257V16.4556H28.371V16.5127H28.4849V16.5697H28.5989V16.6268H28.7128V16.6839H28.8267V16.7409H28.8837V16.798H28.9976V16.855H29.1116V16.9121H29.2255V16.9692H29.2825V17.0262H29.3964V17.0833H29.5104V17.1403H29.6243V17.1974H29.6813V17.2544H29.7952V17.3115H29.8522V17.3686H29.9661V17.4256H30.0231V17.4827H30.137V17.5397H30.194V17.5968H30.308V17.6539H30.3649V17.7109H30.4789V17.768H30.5358V17.825H30.6498V17.8821H30.7067V17.9391H30.8207V17.9962H30.8776V17.9391H30.9346V17.8821H30.9916V17.825H31.1055V17.768H31.1625V17.7109H31.2764V17.6539H31.3334V17.5968H31.4473V17.5397H31.5043V17.4827H31.6183V17.4256H31.6752V17.3686H31.7892V17.3115H31.8461V17.2544H31.9601V17.1974H32.074V17.1403H32.131V17.0833H32.2449V17.0262H32.3589V16.9692H32.4728V16.9121H32.5298V16.855H32.6437V16.798H32.7577V16.7409H32.8716V16.6839H32.9286V16.6268H33.0425V16.5697H33.1564V16.5127H33.2704V16.4556H33.3843V16.3986H33.4983V16.3415H33.6122V16.2845H33.7261V16.2274H33.8401V16.1703H33.954V16.1133H34.068V16.0562H34.1819V15.9992H34.2958V15.9421H34.4667V15.885H34.5807V15.828H34.7516V15.7709H34.8655V15.7139H35.0364V15.6568H35.1504V15.5998H35.3213V15.5427H35.4352V15.4856H35.6061V15.4286H35.7201V15.3715H35.891V15.3145H36.0049V15.2574H36.1758V15.2003H36.3468V15.1433H36.5177V15.0862H36.7455V15.0292H36.9164V14.9721H37.0874V14.9151H37.2583V14.858H37.4861V14.8009H37.6571V14.7439H37.828V14.6868H38.0558V14.6298H38.2837V14.5727H38.4546V14.5156H38.7395V14.4586H38.9674V14.4015H39.2522V14.3445H39.5371V14.2874H39.8219V14.2304H40.1068V14.1733H40.3916V14.1162H40.7904V14.0592H41.1892V14.0021H41.588V13.9451H41.9868V13.888H42.3856V13.8309H42.9552V13.7739H43.6959V13.7168H44.4934V13.6598H45.7468V13.6027H48.1965V40.6484H29.7952V36.6543H26.9467V34.6002H29.7952V33.2308H26.9467V31.1196H29.7952V23.0744H33.954V23.1315H34.3528V23.1885H34.5807V23.2456H34.7516V23.3026H34.9795V23.3597H35.1504V23.4167H35.3213V23.4738H35.4352V23.5309H35.5492V23.5879H35.6631V23.645H35.7771V23.702H35.891V23.7591H36.0049V23.8162H36.1189V23.8732H36.1758V23.9303H36.2898V23.9873H36.3468V24.0444H36.4037V24.1014H36.5177V24.1585H36.5746V24.2156H36.6316V24.2726H36.7455V24.3297H36.8025V24.3867H36.8595V24.4438H36.9164V24.5009H36.9734V24.5579H37.0304V24.615H37.0874V24.672H37.1443V24.7291H37.2013V24.7861H37.2583V24.9003H37.3152V24.9573H37.3722V25.0144H37.4292V25.0714H37.4861V25.1856H37.5431V25.2426H37.6001V25.3567H37.6571V25.4138H37.714V25.5279H37.771V25.642H37.828V25.7561H37.8849V25.8703H37.9419V25.9844H37.9989V26.0985H38.0558V26.2126H38.1128V26.3838H38.1698V26.555H38.2268V26.7261H38.2837V26.9544H38.3407V27.1255H38.3977V27.582H38.4546V28.7232H38.3977V29.1226H38.3407V29.3508H38.2837V29.522H38.2268V29.6932H38.1698V29.8643H38.1128V30.0926H38.0558V30.2067H37.9989V30.3208H37.9419V30.3779H37.8849V30.492H37.828V30.6061H37.771V30.7202H37.714V30.8343H37.6571V30.9484H37.6001V31.0055H37.5431V31.1196H37.4861V31.1767H37.4292V31.2337H37.3722V31.3478H37.3152V31.4049H37.2583V31.462H37.2013V31.519H37.1443V31.5761H37.0874V31.6331H37.0304V31.6902H36.9734V31.7473H36.9164V31.8043H36.8595V31.8614H36.8025V31.9184H36.7455V31.9755H36.6886V32.0325H36.6316V32.0896H36.5177V32.1467H36.4607V32.2037H36.4037V32.2608H36.2898V32.3178H36.2328V32.3749H36.1189V32.432H36.0049V32.489H35.948V32.5461H35.834V32.6031H35.7201V32.6602H35.6061V32.7172H35.4922V32.7743H35.3783V32.8314H35.2074V32.8884H35.0364V32.9455H34.8655V33.0025H34.6377V33.0596H34.4667V33.1167H34.1249V33.1737H33.7261V33.2308H31.8461V34.6002H35.6061V36.6543H31.8461V38.5943H46.1456V15.6568H45.9177V15.7139H44.6643V15.7709H43.9237V15.828H43.1262V15.885H42.6134V15.9421H42.2146V15.9992H41.8159V16.0562H41.4171V16.1133H41.0183V16.1703H40.6765V16.2274H40.3916V16.2845H40.1068V16.3415H39.8219V16.3986H39.5371V16.4556H39.2522V16.5127H39.0243V16.5697H38.7965V16.6268H38.5686V16.6839H38.3977V16.7409H38.2268V16.798H37.9989V16.855H37.828V16.9121H37.6571V16.9692H37.4861V17.0262H37.2583V17.0833H37.0874V17.1403H36.9164V17.1974H36.7455V17.2544H36.6316V17.3115H36.4607V17.3686H36.3468V17.4256H36.1758V17.4827H36.0619V17.5397H35.891V17.5968H35.7201V17.6539H35.6061V17.7109H35.4352V17.768H35.3213V17.825H35.2074V17.8821H35.0934V17.9391H34.9225V17.9962H34.8086V18.0533H34.6946V18.1103H34.5807V18.1674H34.4667V18.2244H34.3528V18.2815H34.2389V18.3386H34.1249V18.3956H34.011V18.4527H33.954V18.5097H33.8401V18.5668H33.7261V18.6238H33.6122V18.6809H33.5552V18.738H33.4413V18.795H33.3274V18.8521H33.2134V18.9091H33.1564V18.9662H33.0425V19.0233H32.9855V19.0803H32.8716V19.1374H32.8146V19.1944H32.7007V19.2515H32.5867V19.3085H32.5298V19.3656H32.4158V19.4227H32.3589V19.4797H32.2449V19.5368H32.188V19.5938H32.131V19.6509H32.017V19.708H31.9601V19.765H31.9031V19.8221H31.7892V19.8791H31.7322V19.9362H31.6183V19.9932H31.5613V20.0503H31.5043V20.1074H31.3904V20.1644H31.3334V20.2215H31.2764V20.2785H31.1625V20.3356H31.1055V20.3927H31.0486V20.4497H30.9346V20.5068H30.8776V20.5638H30.7637V20.5068H30.7067V20.4497H30.6498V20.3927H30.5358V20.3356H30.4789V20.2785H30.3649V20.2215H30.308V20.1644H30.251V20.1074H30.137V20.0503H30.0801V19.9932H30.0231V19.9362H29.9092V19.8791H29.8522V19.8221H29.7952V19.765H29.6813V19.708H29.6243V19.6509H29.5104V19.5938H29.4534V19.5368H29.3964V19.4797H29.2825V19.4227H29.2255V19.3656H29.1116V19.3085H29.0546V19.2515H28.9407V19.1944H28.8837V19.1374H28.7698V19.0803H28.6558V19.0233H28.5989V18.9662H28.4849V18.9091H28.4279V18.8521H28.314V18.795H28.2001V18.738H28.0861V18.6809H28.0292V18.6238H27.9152V18.5668H27.8013V18.5097H27.6873V18.4527H27.6304V18.3956H27.5164V18.3386H27.4025V18.2815H27.2886V18.2244H27.1746V18.1674H27.0607V18.1103H26.9467V18.0533H26.8328V17.9962H26.7189V17.9391H26.6049V17.8821H26.434V17.825H26.3201V17.768H26.2061V17.7109H26.0352V17.6539H25.9213V17.5968H25.7504V17.5397H25.6364V17.4827H25.4655V17.4256H25.2946V17.3686H25.1807V17.3115H25.0098V17.2544H24.8958V17.1974H24.7249V17.1403H24.554V17.0833H24.3831V17.0262H24.2122V16.9692H23.9843V16.9121H23.8134V16.855H23.6425V16.798H23.4716V16.7409H23.2437V16.6839H23.0728V16.6268H22.8449V16.5697H22.617V16.5127H22.3891V16.4556H22.1043V16.3986H21.8194V16.3415H21.5346V16.2845H21.2497V16.2274H20.9649V16.1703H20.6801V16.1133H20.2813V16.0562H19.8825V15.9992H19.4837V15.9421H19.0849V15.885H18.5152V15.828H17.7746V15.7709H16.977V15.7139H15.7237V15.6568H15.4958V40.5913H16.0655V40.6484H17.3188V40.7054H18.1164V40.7625H18.8V40.8195H19.3128V40.8766H19.7685V40.9336H20.2243V40.9907H20.5661V41.0478H20.9079V41.1048H21.3067V41.1619H21.5916V41.2189H21.8764V41.276H22.1613V41.3331H22.3891V41.3901H22.674V41.4472H22.9588V41.5042H23.1867V41.5613H23.4146V41.6183H23.5855V41.6754H23.8134V41.7325H24.0413V41.7895H24.2691V41.8466H24.4401V41.9036H24.611V41.9607H24.8388V42.0178H25.0098V42.0748H25.1237V42.1319H25.2946V42.1889H25.4655V42.246H25.6364V42.303H25.8073V42.3601H25.9213V42.4172H26.0922V42.4742H26.2631V42.5313H26.377V42.5883H26.491V42.6454H26.6619V42.7025H26.7758V42.7595H26.8898V42.8166H27.0607V42.8736H27.1746V42.9307H27.2886V42.9877H27.4025V43.0448H27.5734V43.1019H27.6873V43.1589H27.8013V43.216H27.9152V43.273H28.0292V43.3301H28.1431V43.3872H28.257V43.4442H28.371V43.5013H28.4279V43.5583H28.5419V43.6154H28.6558V43.6724H28.7698V43.7295H28.8837V43.7866H28.9976V43.8436H29.0546V43.9007H29.1686V43.9577H29.2825V44.0148H29.3964V44.0719H29.5104V44.1289H29.6243V44.186H29.6813V44.243H29.7952V44.3001H29.8522V44.3571H29.9661V44.4142H30.0231V44.4713H30.137V44.5283H30.194V44.5854H30.308V44.6424H30.3649V44.6995H30.4789V44.7566H30.5358V44.8136H30.6498V44.8707H30.7067V44.9277H30.8207V44.9848H30.8776V45.0418H30.9916V45.0989H31.0486V45.156H31.1625V45.213H31.2195V45.2701H31.2764V45.3271H31.3334V45.3842H31.4473V45.5554H31.3904V45.6124H31.3334V45.7265H31.2764V45.7836H31.2195V45.8407H31.1625V45.8977H31.1055V46.0118H31.0486V46.0689H30.9916V46.126H30.9346V46.2401H30.8776V46.2971H30.8207V46.3542H30.7637V46.4112H30.7067V46.5254H30.6498V46.5824H30.5928V46.6395H30.5358V46.7536H30.4789V46.8107H30.4219V46.8677H30.3649V46.9248H30.308V47.0389H30.251V47.0959H30.194ZM31.8461 31.0626V31.1196H33.954V31.0626H34.1249V31.0055H34.3528V30.9484H34.5237V30.8914H34.6377V30.8343H34.7516V30.7773H34.8655V30.7202H34.9795V30.6632H35.0364V30.6061H35.1504V30.549H35.2074V30.492H35.2643V30.4349H35.3783V30.3779H35.4352V30.3208H35.4922V30.2637H35.5492V30.2067H35.6061V30.1496H35.6631V30.0926H35.7201V29.9785H35.7771V29.9214H35.834V29.8643H35.891V29.7502H35.948V29.6361H36.0049V29.522H36.0619V29.4079H36.1189V29.3508H36.1758V29.1796H36.2328V29.0085H36.2898V28.7802H36.3468V28.4949H36.4037V27.7532H36.3468V27.4679H36.2898V27.2967H36.2328V27.0685H36.1758V26.9544H36.1189V26.8402H36.0619V26.7261H36.0049V26.612H35.948V26.4979H35.891V26.4408H35.834V26.3838H35.7771V26.2697H35.7201V26.2126H35.6631V26.1555H35.6061V26.0985H35.5492V26.0414H35.4922V25.9844H35.4352V25.9273H35.3783V25.8703H35.3213V25.8132H35.2643V25.7561H35.1504V25.6991H35.0934V25.642H35.0364V25.585H34.9225V25.5279H34.8086V25.4708H34.6946V25.4138H34.5807V25.3567H34.4667V25.2997H34.2389V25.2426H34.068V25.1856H33.7831V25.1285H31.8461V31.0626Z" fill="url(#paint1_linear_66_4)"/>
<path d="M58.1206 14.3201L57.8107 15.3135L57.47 16.3317H58.8025L58.4618 15.3135L58.1457 14.3201H58.1206ZM59.317 17.8149L58.9826 16.8532H57.2837L56.9556 17.8149H56.3607L57.8477 13.5382H58.4243L59.918 17.8149H59.317Z" fill="#293F8B"/>
<path d="M62.0498 13.4947C62.2817 13.4947 62.4982 13.526 62.701 13.5879C62.9026 13.6503 63.0849 13.7473 63.2462 13.8799L62.9608 14.3268C62.8497 14.2314 62.7101 14.1574 62.5426 14.1032C62.3757 14.0493 62.211 14.0225 62.0498 14.0225C61.9296 14.0225 61.8122 14.0415 61.6966 14.0783C61.5809 14.1155 61.4773 14.1737 61.3867 14.2521C61.2955 14.3313 61.2226 14.432 61.1668 14.5564C61.1109 14.6808 61.083 14.8316 61.083 15.0092V16.3439C61.083 16.5178 61.1121 16.6682 61.1696 16.7941C61.2277 16.9201 61.3024 17.0225 61.3929 17.1017C61.4835 17.1797 61.5861 17.2377 61.6994 17.2755C61.8134 17.3123 61.9262 17.3313 62.0378 17.3313C62.1985 17.3313 62.3626 17.3083 62.5301 17.2627C62.6975 17.2176 62.8474 17.1407 62.9796 17.033L63.2524 17.4739C63.1197 17.5813 62.9488 17.6723 62.7374 17.747C62.5272 17.8216 62.2976 17.8584 62.0498 17.8584C61.843 17.8584 61.6459 17.8265 61.4579 17.7625C61.2699 17.6984 61.1052 17.6065 60.9634 17.4862C60.8221 17.3665 60.7093 17.2194 60.6256 17.0455C60.5424 16.8715 60.5008 16.6749 60.5008 16.456V14.8918C60.5008 14.6767 60.5435 14.4828 60.629 14.3112C60.7144 14.1396 60.8284 13.9925 60.9697 13.8703C61.1115 13.7484 61.275 13.6555 61.4613 13.5913C61.647 13.5266 61.843 13.4947 62.0498 13.4947Z" fill="#293F8B"/>
<path d="M65.5022 13.4947C65.7335 13.4947 65.9505 13.526 66.1534 13.5879C66.355 13.6503 66.5368 13.7473 66.6986 13.8799L66.4131 14.3268C66.3015 14.2314 66.1619 14.1574 65.9944 14.1032C65.8275 14.0493 65.6628 14.0225 65.5022 14.0225C65.382 14.0225 65.2646 14.0415 65.149 14.0783C65.0333 14.1155 64.9296 14.1737 64.8391 14.2521C64.7479 14.3313 64.675 14.432 64.6186 14.5564C64.5628 14.6808 64.5354 14.8316 64.5354 15.0092V16.3439C64.5354 16.5178 64.5639 16.6682 64.622 16.7941C64.6801 16.9201 64.7542 17.0225 64.8453 17.1017C64.9359 17.1797 65.0379 17.2377 65.1518 17.2755C65.2658 17.3123 65.378 17.3313 65.4897 17.3313C65.6509 17.3313 65.8149 17.3083 65.9824 17.2627C66.1499 17.2176 66.2992 17.1407 66.4319 17.033L66.7043 17.4739C66.5721 17.5813 66.4006 17.6723 66.1898 17.747C65.9796 17.8216 65.7494 17.8584 65.5022 17.8584C65.2954 17.8584 65.0983 17.8265 64.9103 17.7625C64.7223 17.6984 64.5576 17.6065 64.4158 17.4862C64.2745 17.3665 64.1611 17.2194 64.0779 17.0455C63.9942 16.8715 63.9526 16.6749 63.9526 16.456V14.8918C63.9526 14.6767 63.9953 14.4828 64.0814 14.3112C64.1662 14.1396 64.2802 13.9925 64.4215 13.8703C64.5633 13.7484 64.7274 13.6555 64.9137 13.5913C65.0994 13.5266 65.2954 13.4947 65.5022 13.4947Z" fill="#293F8B"/>
<path d="M69.9703 15.0092C69.9703 14.8361 69.9436 14.6868 69.89 14.5624C69.8365 14.4383 69.7641 14.3357 69.6735 14.2554C69.5829 14.1745 69.477 14.1155 69.3556 14.0783C69.2343 14.0415 69.1055 14.0225 68.9694 14.0225C68.8338 14.0225 68.7045 14.0415 68.5831 14.0783C68.4618 14.1155 68.3569 14.1745 68.2681 14.2554C68.1798 14.3357 68.1086 14.4383 68.0544 14.5624C68.0015 14.6868 67.9747 14.8361 67.9747 15.0092V16.3506C67.9747 16.5244 68.0015 16.6727 68.0544 16.7975C68.1086 16.9212 68.1803 17.0225 68.2709 17.1017C68.3615 17.1797 68.468 17.2377 68.5894 17.2755C68.7107 17.3123 68.8372 17.3313 68.9694 17.3313C69.1055 17.3313 69.2331 17.3123 69.3528 17.2755C69.4718 17.2377 69.5778 17.1797 69.6707 17.1017C69.763 17.0225 69.8365 16.9212 69.89 16.7975C69.9436 16.6727 69.9703 16.5244 69.9703 16.3506V15.0092ZM70.5526 16.4186C70.5526 16.6381 70.5127 16.8365 70.4318 17.0148C70.3515 17.1924 70.2392 17.3435 70.0962 17.4672C69.9532 17.592 69.7857 17.6879 69.5938 17.7559C69.4012 17.8243 69.1927 17.8584 68.9694 17.8584C68.7375 17.8584 68.5244 17.8243 68.3296 17.7559C68.1353 17.6879 67.9684 17.592 67.83 17.4672C67.6915 17.3435 67.5833 17.1924 67.5064 17.0148C67.4306 16.8365 67.3919 16.6381 67.3919 16.4186V14.9408C67.3919 14.7258 67.4306 14.5296 67.5064 14.3513C67.5833 14.1737 67.6915 14.0215 67.83 13.8955C67.9684 13.7689 68.1353 13.6708 68.3296 13.6002C68.5244 13.53 68.7375 13.4947 68.9694 13.4947C69.1967 13.4947 69.408 13.53 69.6029 13.6002C69.7971 13.6708 69.9652 13.7689 70.1059 13.8955C70.2466 14.0215 70.356 14.1737 70.4346 14.3513C70.5138 14.5296 70.5526 14.7258 70.5526 14.9408V16.4186Z" fill="#293F8B"/>
<path d="M74.3337 17.815H71.3895V13.5383H71.9597V17.3002H73.9617V13.5383H74.5445V17.2879L74.8977 17.2935V18.74H74.3337V17.815Z" fill="#293F8B"/>
<path d="M78.2008 14.5007L77.5809 15.4936L76.0872 17.8149H75.5482V13.5382H76.1185V16.8097H76.1618L76.707 15.9527L78.2623 13.5382H78.8143V17.8149H78.2441V14.5007H78.2008Z" fill="#293F8B"/>
<path d="M81.2059 14.3201L80.896 15.3135L80.5559 16.3317H81.8884L81.5472 15.3135L81.231 14.3201H81.2059ZM82.4023 17.8149L82.0679 16.8532H80.3696L80.0409 17.8149H79.4461L80.9336 13.5382H81.5102L83.0039 17.8149H82.4023Z" fill="#293F8B"/>
<path d="M86.5303 17.815H83.5861V13.5383H84.1564V17.3002H86.1583V13.5383H86.7411V17.2879L87.0943 17.2935V18.74H86.5303V17.815Z" fill="#293F8B"/>
<path d="M90.3974 14.5007L89.7776 15.4936L88.2838 17.8149H87.7449V13.5382H88.3152V16.8097H88.3585L88.9037 15.9527L90.4595 13.5382H91.011V17.8149H90.4407V14.5007H90.3974Z" fill="#293F8B"/>
<path d="M92.486 14.8172C92.486 15.0612 92.5617 15.2351 92.7127 15.3387C92.8631 15.4423 93.0562 15.4936 93.2915 15.4936H94.3574V14.06H93.2796C93.0232 14.06 92.8272 14.1251 92.6911 14.2555C92.5543 14.3859 92.486 14.5731 92.486 14.8172ZM91.9408 14.8172C91.9408 14.6433 91.9675 14.4788 92.0217 14.3235C92.0746 14.1686 92.1544 14.0326 92.2598 13.9167C92.3652 13.8012 92.4934 13.7094 92.6443 13.641C92.7947 13.5724 92.9696 13.5382 93.1679 13.5382H94.9277V17.8149H94.3574V15.9717H93.5086C93.4385 15.9762 93.3661 15.9884 93.2915 16.0092C93.2175 16.0296 93.1468 16.0646 93.0813 16.1144C93.0152 16.1645 92.9525 16.2313 92.895 16.3161C92.8369 16.4008 92.7873 16.51 92.7463 16.6422L92.4113 17.8149H91.8291L92.176 16.5802C92.2302 16.4063 92.2883 16.2603 92.3498 16.1422C92.4113 16.0241 92.511 15.9327 92.6472 15.8658C92.3994 15.7916 92.2193 15.6626 92.1083 15.478C91.9966 15.2942 91.9408 15.0735 91.9408 14.8172Z" fill="#293F8B"/>
<path d="M59.0321 22.3663C59.0321 22.1344 58.9609 21.9506 58.8185 21.8139C58.6755 21.6776 58.4926 21.6096 58.2699 21.6096H57.1846V23.1174H58.2699C58.4926 23.1174 58.6755 23.0517 58.8185 22.919C58.9609 22.7864 59.0321 22.6025 59.0321 22.3663ZM59.5961 22.3663C59.5961 22.5194 59.5682 22.6716 59.5118 22.8227C59.4565 22.9736 59.3768 23.1107 59.2731 23.2322C59.1706 23.3548 59.0441 23.4539 58.8954 23.5301C58.7467 23.6066 58.5775 23.645 58.3872 23.645H57.1846V25.3647H56.6144V21.088H58.3872C58.594 21.088 58.7723 21.1259 58.9233 21.2028C59.0743 21.279 59.199 21.3789 59.2982 21.5004C59.3973 21.6229 59.4719 21.7589 59.5215 21.9105C59.5711 22.0614 59.5961 22.2136 59.5961 22.3663Z" fill="#293F8B"/>
<path d="M61.43 21.8699L61.1206 22.8633L60.7794 23.8808H62.1119L61.7712 22.8633L61.4545 21.8699H61.43ZM62.6264 25.3647L62.2914 24.4023H60.5937L60.2655 25.3647H59.6702L61.1577 21.088H61.7342L63.2274 25.3647H62.6264Z" fill="#293F8B"/>
<path d="M64.9878 21.0501C65.1609 21.0501 65.3273 21.0702 65.4868 21.1092C65.6458 21.1487 65.7865 21.2117 65.9084 21.2987C66.0303 21.3856 66.1283 21.4981 66.2024 21.6374C66.277 21.7756 66.314 21.9443 66.314 22.1434C66.314 22.354 66.2622 22.5479 66.1591 22.7236C66.0559 22.899 65.905 23.0242 65.7067 23.0992C65.8218 23.1364 65.9215 23.1898 66.0041 23.2601C66.0867 23.3307 66.1545 23.4105 66.2086 23.4996C66.2622 23.5884 66.3015 23.6835 66.3266 23.7849C66.351 23.8863 66.3636 23.9866 66.3636 24.0859C66.3636 24.3132 66.3243 24.5104 66.2462 24.6754C66.1676 24.8414 66.0599 24.9785 65.9238 25.0888C65.7871 25.198 65.6253 25.2789 65.4373 25.3306C65.2493 25.3819 65.0476 25.408 64.8328 25.408C64.7052 25.408 64.5764 25.3964 64.4483 25.3741C64.3206 25.3511 64.1999 25.3206 64.0865 25.2805C63.972 25.2415 63.8672 25.1958 63.7697 25.1445C63.6729 25.0926 63.5909 25.0375 63.5248 24.9796L63.8227 24.5577C63.8803 24.6029 63.9515 24.6475 64.0364 24.691C64.1213 24.7344 64.2096 24.7716 64.3024 24.8031C64.3964 24.8336 64.4898 24.8586 64.585 24.8771C64.6801 24.896 64.7644 24.9049 64.8391 24.9049C65.1815 24.9049 65.4298 24.8321 65.5831 24.685C65.7358 24.5383 65.8121 24.3403 65.8121 24.0925C65.8121 23.8563 65.7432 23.6773 65.6047 23.5554C65.4657 23.4328 65.2732 23.3722 65.0248 23.3722H64.5411V22.8945H64.9878C65.0744 22.8945 65.1644 22.88 65.2572 22.8511C65.3501 22.8221 65.4338 22.7775 65.5085 22.7173C65.5831 22.6571 65.6446 22.5813 65.6942 22.4907C65.7438 22.3997 65.7688 22.2916 65.7688 22.1679C65.7688 21.9566 65.6891 21.8012 65.5301 21.7021C65.3706 21.6029 65.1741 21.5534 64.9382 21.5534C64.8641 21.5534 64.7821 21.5617 64.6932 21.5784C64.6044 21.5951 64.5166 21.6185 64.43 21.6497C64.3434 21.6809 64.2603 21.7155 64.1822 21.7549C64.1036 21.7946 64.0375 21.8392 63.984 21.8882L63.686 21.4663C63.8478 21.3466 64.029 21.2474 64.2312 21.1683C64.434 21.0903 64.6858 21.0501 64.9878 21.0501Z" fill="#293F8B"/>
<path d="M69.661 24.1103C69.661 23.9951 69.6393 23.8926 69.5955 23.8039C69.5522 23.7147 69.4946 23.639 69.4223 23.5765C69.3499 23.5153 69.2668 23.4673 69.1739 23.4339C69.081 23.4011 68.9848 23.3848 68.8856 23.3848H67.7451V24.8492H68.8982C69.15 24.8492 69.3403 24.7857 69.4684 24.6568C69.5961 24.5287 69.661 24.3466 69.661 24.1103ZM69.5864 22.2303C69.5864 22.0063 69.5152 21.8469 69.3733 21.7522C69.2314 21.6568 69.0491 21.6096 68.8264 21.6096H67.7451V22.8688H68.876C68.9705 22.8688 69.0611 22.8555 69.1477 22.8287C69.2343 22.802 69.3095 22.7619 69.3733 22.7077C69.4371 22.6538 69.4884 22.5869 69.5271 22.506C69.567 22.4253 69.5864 22.3335 69.5864 22.2303ZM70.2182 24.1103C70.2182 24.2641 70.1925 24.4146 70.1412 24.5639C70.0894 24.7133 70.0131 24.8465 69.9117 24.964C69.8103 25.0821 69.6832 25.1786 69.5305 25.2526C69.3779 25.3273 69.2018 25.3647 69.0036 25.3647H67.1629V21.088H68.9352C69.1295 21.088 69.3021 21.1192 69.4525 21.1805C69.6035 21.2429 69.7311 21.3254 69.8342 21.429C69.9373 21.5327 70.0159 21.653 70.07 21.789C70.123 21.9261 70.1504 22.0687 70.1504 22.2174C70.1504 22.3874 70.1111 22.5535 70.0324 22.7173C69.9538 22.8811 69.8177 23.016 69.6234 23.1241C69.8302 23.231 69.9806 23.3759 70.0757 23.5587C70.1709 23.7404 70.2182 23.9243 70.2182 24.1103Z" fill="#293F8B"/>
<path d="M73.6893 22.0498L73.0695 23.0427L71.5757 25.3647H71.0368V21.088H71.6071V24.3589H71.6504L72.1956 23.5023L73.7508 21.088H74.3029V25.3647H73.7326V22.0498H73.6893Z" fill="#293F8B"/>
<path d="M76.7691 21.6152V25.3647H76.1869V21.6152H74.9535V21.088H77.9968V21.6152H76.7691Z" fill="#293F8B"/>
<path d="M81.2936 22.0498L80.6738 23.0427L79.1801 25.3647H78.6406V21.088H79.2108V24.3589H79.2547L79.7999 23.5023L81.3552 21.088H81.9072V25.3647H81.3369V22.0498H81.2936Z" fill="#293F8B"/>
<path d="M83.3822 22.3663C83.3822 22.6103 83.4579 22.7842 83.6083 22.8878C83.7593 22.9915 83.9524 23.0427 84.1877 23.0427H85.2536V21.6096H84.1752C83.9188 21.6096 83.7228 21.6742 83.5867 21.8046C83.4505 21.935 83.3822 22.1222 83.3822 22.3663ZM82.837 22.3663C82.837 22.1924 82.8637 22.0286 82.9173 21.873C82.9708 21.7177 83.0506 21.5824 83.1554 21.4662C83.2614 21.351 83.389 21.2585 83.54 21.1905C83.6909 21.1219 83.8653 21.088 84.0641 21.088H85.8239V25.3647H85.2536V23.5208H84.4048C84.3347 23.5252 84.2623 23.5375 84.1877 23.5587C84.1137 23.5788 84.043 23.6144 83.9775 23.6634C83.9108 23.7136 83.8488 23.7805 83.7906 23.8651C83.7331 23.9505 83.6835 24.0591 83.6425 24.1917L83.3075 25.3647H82.7247L83.0723 24.1293C83.1258 23.9554 83.1839 23.8095 83.2454 23.6917C83.3075 23.5736 83.4072 23.4818 83.5434 23.4156C83.295 23.3414 83.1155 23.2121 83.0045 23.0278C82.8922 22.8432 82.837 22.6233 82.837 22.3663Z" fill="#293F8B"/>
<path d="M60.1163 30.4187C60.1163 30.253 60.0884 30.1033 60.0331 29.9689C59.9778 29.8341 59.8998 29.7193 59.799 29.6246C59.6981 29.5287 59.5779 29.4536 59.4383 29.3972C59.2982 29.3415 59.1427 29.3114 58.97 29.3074V32.0388C59.1341 32.035 59.2874 32.0072 59.4292 31.9548C59.5711 31.9035 59.6924 31.83 59.7927 31.7346C59.8935 31.6394 59.9727 31.5247 60.0297 31.3898C60.0878 31.2561 60.1163 31.1034 60.1163 30.934V30.4187ZM57.2404 30.934C57.2404 31.1034 57.2695 31.2561 57.327 31.3898C57.3846 31.5247 57.4638 31.6394 57.564 31.7346C57.6649 31.83 57.7851 31.9035 57.9246 31.9548C58.0642 32.0072 58.2186 32.035 58.3872 32.0388V29.3074C58.2146 29.3114 58.0585 29.3415 57.9184 29.3972C57.7788 29.4536 57.6586 29.5287 57.5583 29.6246C57.4575 29.7193 57.3794 29.8341 57.3236 29.9689C57.2684 30.1033 57.2404 30.253 57.2404 30.4187V30.934ZM58.97 32.9143H58.3872V32.5666C58.1104 32.5584 57.8648 32.5109 57.65 32.4239C57.4347 32.337 57.2535 32.2222 57.1077 32.0789C56.9607 31.9363 56.8495 31.7698 56.7724 31.5793C56.6963 31.3894 56.6578 31.1848 56.6578 30.9652V30.3627C56.6578 30.1517 56.6985 29.9533 56.7791 29.7672C56.8592 29.5811 56.9738 29.4162 57.1231 29.2735C57.2718 29.1309 57.4524 29.0149 57.6654 28.9258C57.8779 28.8366 58.1183 28.7883 58.3872 28.7798V28.5937H58.97V28.7798C59.2384 28.7883 59.4794 28.8355 59.6918 28.9224C59.9049 29.0094 60.0855 29.1242 60.2342 29.2673C60.3829 29.4099 60.498 29.5755 60.5777 29.7638C60.6586 29.9522 60.6991 30.1517 60.6991 30.3627V30.9463C60.6991 31.1658 60.6609 31.3713 60.584 31.5636C60.5077 31.7564 60.396 31.9247 60.2496 32.0696C60.1026 32.2144 59.922 32.3315 59.7072 32.4206C59.4925 32.5098 59.2463 32.5584 58.97 32.5666V32.9143Z" fill="#293F8B"/>
<path d="M64.2688 29.5989L63.649 30.5925L62.1552 32.9143H61.6163V28.6372H62.1865V31.9084H62.2298L62.775 31.0521L64.3303 28.6372H64.8823V32.9143H64.3121V29.5989H64.2688Z" fill="#293F8B"/>
<path d="M68.3404 32.9143V31.0087H66.3391V32.9143H65.7688V28.6372H66.3391V30.4871H68.3404V28.6372H68.9232V32.9143H68.3404Z" fill="#293F8B"/>
<path d="M71.2841 29.4195L70.9741 30.4124L70.6335 31.4303H71.966L71.6253 30.4124L71.3085 29.4195H71.2841ZM72.4804 32.9143L72.1454 31.9521H70.4477L70.119 32.9143H69.5237L71.0117 28.6372H71.5883L73.0815 32.9143H72.4804Z" fill="#293F8B"/>
<path d="M76.2364 32.9143V31.0087H74.2345V32.9143H73.6642V28.6372H74.2345V30.4871H76.2364V28.6372H76.8187V32.9143H76.2364Z" fill="#293F8B"/>
<path d="M79.2234 28.5937C79.4547 28.5937 79.6717 28.6249 79.874 28.6866C80.0762 28.7486 80.2579 28.846 80.4192 28.9788L80.1343 29.4257C80.0227 29.3303 79.8831 29.2556 79.7156 29.2022C79.5487 29.1487 79.384 29.1214 79.2234 29.1214C79.1032 29.1214 78.9858 29.1398 78.8702 29.177C78.7545 29.2144 78.6508 29.2724 78.5602 29.3508C78.4691 29.4295 78.3962 29.5309 78.3398 29.6551C78.2839 29.7794 78.2566 29.9303 78.2566 30.1082V31.4433C78.2566 31.6164 78.2851 31.7664 78.3432 31.8931C78.4013 32.0194 78.4754 32.1219 78.5665 32.2C78.6571 32.2791 78.7591 32.337 78.873 32.3738C78.9869 32.4113 79.0992 32.4295 79.2108 32.4295C79.3721 32.4295 79.5361 32.4072 79.7036 32.3616C79.8711 32.3159 80.0204 32.2394 80.1531 32.132L80.4254 32.5728C80.2933 32.6803 80.1218 32.7716 79.911 32.8456C79.7008 32.9199 79.4706 32.9578 79.2234 32.9578C79.0166 32.9578 78.8195 32.9254 78.6315 32.8612C78.4435 32.7973 78.2788 32.7048 78.137 32.5851C77.9957 32.4652 77.8823 32.3181 77.7991 32.1442C77.7154 31.9704 77.6738 31.7743 77.6738 31.5547V29.99C77.6738 29.775 77.7165 29.5817 77.8025 29.4099C77.8874 29.2382 78.0014 29.0912 78.1427 28.9692C78.2845 28.8473 78.4486 28.7542 78.6349 28.6895C78.8206 28.626 79.0166 28.5937 79.2234 28.5937Z" fill="#293F8B"/>
<path d="M83.6915 30.1082C83.6915 29.9344 83.6647 29.7854 83.6112 29.6613C83.5576 29.5376 83.4853 29.4351 83.3947 29.3537C83.3041 29.2735 83.1981 29.2144 83.0768 29.177C82.9554 29.1398 82.8267 29.1214 82.6905 29.1214C82.5549 29.1214 82.4256 29.1398 82.3043 29.177C82.1829 29.2144 82.0781 29.2735 81.9892 29.3537C81.9009 29.4351 81.8297 29.5376 81.7756 29.6613C81.7226 29.7854 81.6958 29.9344 81.6958 30.1082V31.4489C81.6958 31.6227 81.7226 31.772 81.7756 31.8957C81.8297 32.0205 81.9015 32.1219 81.9921 32.2C82.0827 32.2791 82.1892 32.337 82.3105 32.3738C82.4319 32.4113 82.5584 32.4295 82.6905 32.4295C82.8267 32.4295 82.9543 32.4113 83.0739 32.3738C83.193 32.337 83.299 32.2791 83.3918 32.2C83.4841 32.1219 83.5576 32.0205 83.6112 31.8957C83.6647 31.772 83.6915 31.6227 83.6915 31.4489V30.1082ZM84.2737 31.5175C84.2737 31.7364 84.2338 31.9354 84.1529 32.113C84.0726 32.2913 83.9604 32.4425 83.8174 32.5666C83.6744 32.6903 83.5069 32.7868 83.3149 32.8552C83.1224 32.9232 82.9138 32.9578 82.6905 32.9578C82.4587 32.9578 82.2456 32.9232 82.0508 32.8552C81.8565 32.7868 81.6896 32.6903 81.5511 32.5666C81.4127 32.4425 81.3045 32.2913 81.2275 32.113C81.1518 31.9354 81.113 31.7364 81.113 31.5175V30.0402C81.113 29.8251 81.1518 29.6283 81.2275 29.4507C81.3045 29.2724 81.4127 29.1201 81.5511 28.9938C81.6896 28.8678 81.8565 28.7697 82.0508 28.6996C82.2456 28.6293 82.4587 28.5937 82.6905 28.5937C82.9178 28.5937 83.1292 28.6293 83.324 28.6996C83.5183 28.7697 83.6864 28.8678 83.8271 28.9938C83.9678 29.1201 84.0772 29.2724 84.1558 29.4507C84.235 29.6283 84.2737 29.8251 84.2737 30.0402V31.5175Z" fill="#293F8B"/>
<path d="M87.627 31.6602C87.627 31.5447 87.6054 31.4421 87.5621 31.353C87.5182 31.2638 87.4607 31.1881 87.3883 31.1261C87.316 31.0644 87.2333 31.0164 87.1405 30.9835C87.0476 30.9507 86.9513 30.934 86.8522 30.934H85.7123V32.399H86.8648C87.1166 32.399 87.3068 32.3348 87.435 32.2067C87.5632 32.0785 87.627 31.8958 87.627 31.6602ZM87.5524 29.7795C87.5524 29.5561 87.4817 29.3968 87.3393 29.3014C87.1975 29.2067 87.0152 29.1587 86.793 29.1587H85.7123V30.4187H86.8425C86.9371 30.4187 87.0277 30.4053 87.1137 30.3786C87.2009 30.3511 87.2761 30.311 87.3393 30.2576C87.4031 30.2034 87.455 30.1361 87.4937 30.0558C87.533 29.9745 87.5524 29.8831 87.5524 29.7795ZM88.1847 31.6602C88.1847 31.8133 88.1585 31.9644 88.1073 32.113C88.056 32.2624 87.9791 32.3961 87.8777 32.5138C87.7768 32.6312 87.6498 32.7282 87.4965 32.8022C87.3439 32.8764 87.1684 32.9143 86.9701 32.9143H85.1295V28.6372H86.9018C87.0961 28.6372 87.2687 28.6684 87.4196 28.7301C87.57 28.7921 87.6971 28.875 87.8008 28.9788C87.9039 29.0818 87.9825 29.2022 88.0361 29.3386C88.0896 29.4752 88.1164 29.6179 88.1164 29.7672C88.1164 29.9366 88.0776 30.1033 87.999 30.2665C87.9204 30.4303 87.7837 30.5656 87.5894 30.6732C87.7968 30.7808 87.9472 30.9258 88.0423 31.1078C88.1369 31.2895 88.1847 31.4738 88.1847 31.6602Z" fill="#293F8B"/>
<path d="M91.5374 30.1082C91.5374 29.9344 91.5106 29.7854 91.4571 29.6613C91.4041 29.5376 91.3318 29.4351 91.2412 29.3537C91.15 29.2735 91.0446 29.2144 90.9227 29.177C90.8014 29.1398 90.6732 29.1214 90.5365 29.1214C90.4009 29.1214 90.2716 29.1398 90.1508 29.177C90.0294 29.2144 89.924 29.2735 89.8357 29.3537C89.7474 29.4351 89.6762 29.5376 89.6221 29.6613C89.5685 29.7854 89.5418 29.9344 89.5418 30.1082V31.4489C89.5418 31.6227 89.5685 31.772 89.6221 31.8957C89.6762 32.0205 89.748 32.1219 89.8386 32.2C89.9292 32.2791 90.0351 32.337 90.1565 32.3738C90.2778 32.4113 90.4049 32.4295 90.5365 32.4295C90.6732 32.4295 90.8002 32.4113 90.9199 32.3738C91.0389 32.337 91.1455 32.2791 91.2383 32.2C91.3306 32.1219 91.4041 32.0205 91.4571 31.8957C91.5106 31.772 91.5374 31.6227 91.5374 31.4489V30.1082ZM92.1202 31.5175C92.1202 31.7364 92.0798 31.9354 91.9994 32.113C91.9185 32.2913 91.8069 32.4425 91.6639 32.5666C91.5209 32.6903 91.3534 32.7868 91.1608 32.8552C90.9683 32.9232 90.7603 32.9578 90.5365 32.9578C90.3046 32.9578 90.0915 32.9232 89.8967 32.8552C89.7024 32.7868 89.5355 32.6903 89.3971 32.5666C89.2586 32.4425 89.151 32.2913 89.074 32.113C88.9977 31.9354 88.9595 31.7364 88.9595 31.5175V30.0402C88.9595 29.8251 88.9977 29.6283 89.074 29.4507C89.151 29.2724 89.2586 29.1201 89.3971 28.9938C89.5355 28.8678 89.7024 28.7697 89.8967 28.6996C90.0915 28.6293 90.3046 28.5937 90.5365 28.5937C90.7643 28.5937 90.9757 28.6293 91.1705 28.6996C91.3642 28.7697 91.5323 28.8678 91.673 28.9938C91.8137 29.1201 91.9237 29.2724 92.0023 29.4507C92.0809 29.6283 92.1202 29.8251 92.1202 30.0402V31.5175Z" fill="#293F8B"/>
<path d="M94.1221 27.6502L94.1592 27.7802L94.2458 27.9077C94.2828 27.9473 94.3289 27.979 94.3825 28.0042C94.436 28.0287 94.4958 28.041 94.5625 28.041C94.6366 28.041 94.7015 28.0287 94.7568 28.0042C94.8132 27.979 94.8593 27.9473 94.8969 27.9077L94.9807 27.7802L95.0086 27.6502H95.4484C95.4404 27.7334 95.4216 27.8209 95.3925 27.9139C95.3635 28.0075 95.3151 28.0933 95.2473 28.1713C95.1789 28.2505 95.0895 28.3162 94.9807 28.3701C94.8713 28.4243 94.7317 28.451 94.5625 28.451C94.3927 28.451 94.2514 28.4243 94.1375 28.3701C94.0236 28.3162 93.933 28.2505 93.8646 28.1713C93.7968 28.0933 93.7473 28.0075 93.7159 27.9139C93.6852 27.8209 93.6692 27.7334 93.6692 27.6502H94.1221ZM95.6404 29.5989L95.0205 30.5925L93.5268 32.9143H92.9879V28.6372H93.5581V31.9084H93.6014L94.1466 31.0521L95.7025 28.6372H96.2539V32.9143H95.6837V29.5989H95.6404Z" fill="#293F8B"/>
<path d="M57.2279 36.7077V40.4634H56.6578V36.1862H59.509V36.7077H57.2279Z" fill="#293F8B"/>
<path d="M62.3968 37.4656C62.3968 37.2338 62.3256 37.0495 62.1831 36.9128C62.0407 36.7764 61.8573 36.7077 61.6345 36.7077H60.5504V38.2167H61.6345C61.8573 38.2167 62.0407 38.1498 62.1831 38.0177C62.3256 37.8857 62.3968 37.7007 62.3968 37.4656ZM62.9608 37.4656C62.9608 37.6183 62.9328 37.7705 62.8776 37.9214C62.8212 38.0729 62.7414 38.2089 62.6389 38.3315C62.5352 38.4529 62.4093 38.5526 62.26 38.629C62.1119 38.7059 61.9421 38.7438 61.7524 38.7438H60.5504V40.4634H59.9801V36.1862H61.7524C61.9587 36.1862 62.1376 36.2252 62.288 36.301C62.4389 36.3779 62.5643 36.4771 62.6634 36.5997C62.7625 36.7212 62.8366 36.8582 62.8861 37.0087C62.9363 37.1602 62.9608 37.3118 62.9608 37.4656Z" fill="#293F8B"/>
<path d="M64.7958 36.9686L64.4859 37.9615L64.1446 38.9801H65.4771L65.1364 37.9615L64.8203 36.9686H64.7958ZM65.9916 40.4634L65.6566 39.5016H63.9589L63.6307 40.4634H63.0354L64.5229 36.1862H65.0994L66.5926 40.4634H65.9916Z" fill="#293F8B"/>
<path d="M69.1836 39.067L69.7106 37.9307L70.5594 36.1862H71.0864V40.4634H70.5161V37.5525H70.4848L70.094 38.3776L69.3756 39.8304H68.9477L68.2658 38.4953L67.8009 37.5525H67.7702V40.4634H67.1999V36.1862H67.7451L68.607 37.9307L69.146 39.067H69.1836Z" fill="#293F8B"/>
<path d="M74.5256 37.6572C74.5256 37.4838 74.4989 37.3352 74.4453 37.2103C74.3917 37.0866 74.3194 36.9841 74.2288 36.9032C74.1382 36.8225 74.0328 36.7635 73.9109 36.7267C73.7896 36.6892 73.6608 36.671 73.5247 36.671C73.3891 36.671 73.2598 36.6892 73.1384 36.7267C73.0171 36.7635 72.9122 36.8225 72.8234 36.9032C72.7351 36.9841 72.6639 37.0866 72.6097 37.2103C72.5568 37.3352 72.53 37.4838 72.53 37.6572V38.9983C72.53 39.1724 72.5568 39.321 72.6097 39.4452C72.6639 39.5696 72.7356 39.671 72.8262 39.7494C72.9174 39.8281 73.0233 39.8861 73.1447 39.9235C73.266 39.9607 73.3931 39.979 73.5247 39.979C73.6608 39.979 73.7884 39.9607 73.9081 39.9235C74.0271 39.8861 74.1331 39.8281 74.226 39.7494C74.3188 39.671 74.3917 39.5696 74.4453 39.4452C74.4989 39.321 74.5256 39.1724 74.5256 38.9983V37.6572ZM75.1079 39.067C75.1079 39.2858 75.068 39.4849 74.9871 39.6628C74.9068 39.8404 74.7945 39.9919 74.6515 40.1156C74.5085 40.24 74.3416 40.3363 74.1491 40.4043C73.9565 40.4723 73.7486 40.5068 73.5247 40.5068C73.2928 40.5068 73.0797 40.4723 72.8849 40.4043C72.6906 40.3363 72.5237 40.24 72.3853 40.1156C72.2468 39.9919 72.1386 39.8404 72.0623 39.6628C71.9859 39.4849 71.9472 39.2858 71.9472 39.067V37.5893C71.9472 37.3742 71.9859 37.1781 72.0623 36.9997C72.1386 36.8214 72.2468 36.6698 72.3853 36.5435C72.5237 36.4169 72.6906 36.3188 72.8849 36.2486C73.0797 36.1784 73.2928 36.1427 73.5247 36.1427C73.752 36.1427 73.9633 36.1784 74.1582 36.2486C74.3524 36.3188 74.5205 36.4169 74.6612 36.5435C74.8019 36.6698 74.9119 36.8214 74.9899 36.9997C75.0691 37.1781 75.1079 37.3742 75.1079 37.5893V39.067Z" fill="#293F8B"/>
<path d="M77.5251 36.7145V40.4634H76.9423V36.7145H75.7089V36.1862H78.7522V36.7145H77.5251Z" fill="#293F8B"/>
<path d="M81.938 40.4634V38.5577H79.9361V40.4634H79.3658V36.1862H79.9361V38.0362H81.938V36.1862H82.5202V40.4634H81.938Z" fill="#293F8B"/>
<path d="M85.9412 37.6572C85.9412 37.4838 85.9145 37.3352 85.8609 37.2103C85.8079 37.0866 85.7356 36.9841 85.6444 36.9032C85.5538 36.8225 85.4485 36.7635 85.3265 36.7267C85.2052 36.6892 85.0764 36.671 84.9403 36.671C84.8047 36.671 84.6754 36.6892 84.554 36.7267C84.4327 36.7635 84.3279 36.8225 84.2396 36.9032C84.1507 36.9841 84.0795 37.0866 84.0259 37.2103C83.9724 37.3352 83.9456 37.4838 83.9456 37.6572V38.9983C83.9456 39.1724 83.9724 39.321 84.0259 39.4452C84.0795 39.5696 84.1513 39.671 84.2418 39.7494C84.333 39.8281 84.439 39.8861 84.5603 39.9235C84.6816 39.9607 84.8087 39.979 84.9403 39.979C85.0764 39.979 85.2041 39.9607 85.3237 39.9235C85.4428 39.8861 85.5487 39.8281 85.6416 39.7494C85.7344 39.671 85.8079 39.5696 85.8609 39.4452C85.9145 39.321 85.9412 39.1724 85.9412 38.9983V37.6572ZM86.5235 39.067C86.5235 39.2858 86.4836 39.4849 86.4027 39.6628C86.3224 39.8404 86.2107 39.9919 86.0677 40.1156C85.9247 40.24 85.7572 40.3363 85.5647 40.4043C85.3721 40.4723 85.1642 40.5068 84.9403 40.5068C84.7084 40.5068 84.4954 40.4723 84.3005 40.4043C84.1062 40.3363 83.9393 40.24 83.8009 40.1156C83.6625 39.9919 83.5542 39.8404 83.4779 39.6628C83.4015 39.4849 83.3628 39.2858 83.3628 39.067V37.5893C83.3628 37.3742 83.4015 37.1781 83.4779 36.9997C83.5542 36.8214 83.6625 36.6698 83.8009 36.5435C83.9393 36.4169 84.1062 36.3188 84.3005 36.2486C84.4954 36.1784 84.7084 36.1427 84.9403 36.1427C85.1676 36.1427 85.3795 36.1784 85.5738 36.2486C85.7681 36.3188 85.9361 36.4169 86.0768 36.5435C86.2176 36.6698 86.3275 36.8214 86.4055 36.9997C86.4847 37.1781 86.5235 37.3742 86.5235 37.5893V39.067Z" fill="#293F8B"/>
<path d="M88.9099 36.1427C89.1412 36.1427 89.3583 36.1739 89.5605 36.2364C89.7628 36.2983 89.9445 36.3957 90.1057 36.5283L89.8203 36.9752C89.7092 36.8794 89.5696 36.8052 89.4022 36.7512C89.2352 36.6977 89.0706 36.671 88.9099 36.671C88.7897 36.671 88.6724 36.6892 88.5567 36.7267C88.4411 36.7635 88.3374 36.8214 88.2468 36.9005C88.1557 36.979 88.0827 37.08 88.0263 37.2048C87.9705 37.3285 87.9432 37.4801 87.9432 37.6572V38.9923C87.9432 39.1661 87.9716 39.3159 88.0297 39.4425C88.0873 39.5685 88.1619 39.671 88.2525 39.7494C88.3437 39.8281 88.4456 39.8861 88.5596 39.9235C88.6735 39.9607 88.7857 39.979 88.8974 39.979C89.0586 39.979 89.2227 39.9563 89.3902 39.9106C89.5577 39.8653 89.7069 39.7891 89.8397 39.681L90.112 40.1223C89.9798 40.2293 89.8083 40.3207 89.5976 40.3953C89.3873 40.4693 89.1572 40.5068 88.9099 40.5068C88.7031 40.5068 88.506 40.4745 88.318 40.411C88.13 40.3463 87.9654 40.2545 87.8235 40.1346C87.6822 40.0143 87.5689 39.8672 87.4857 39.6933C87.4019 39.5194 87.3604 39.3233 87.3604 39.1038V37.5398C87.3604 37.3245 87.4031 37.1312 87.4891 36.9596C87.574 36.788 87.6879 36.6409 87.8292 36.5183C87.9711 36.3968 88.1346 36.3032 88.3214 36.2393C88.5072 36.1751 88.7031 36.1427 88.9099 36.1427Z" fill="#293F8B"/>
<path d="M92.3931 36.7145V40.4634H91.8103V36.7145H90.5769V36.1862H93.6197V36.7145H92.3931Z" fill="#293F8B"/>
<path d="M96.9171 37.1484L96.2972 38.142L94.8041 40.4634H94.2646V36.1862H94.8343V39.4582H94.8776L95.4233 38.6012L96.9792 36.1862H97.5306V40.4634H96.9604V37.1484H96.9171Z" fill="#293F8B"/>
<defs>
<linearGradient id="paint0_linear_66_4" x1="30.8241" y1="47.0498" x2="30.8241" y2="13.625" gradientUnits="userSpaceOnUse">
<stop stop-color="#293E8A"/>
<stop offset="0.0298235" stop-color="#293E8A"/>
<stop offset="0.535135" stop-color="#334FA8"/>
<stop offset="1" stop-color="#507DC8"/>
</linearGradient>
<linearGradient id="paint1_linear_66_4" x1="30.8238" y1="47.0498" x2="30.8238" y2="13.6244" gradientUnits="userSpaceOnUse">
<stop stop-color="#293E8A"/>
<stop offset="0.0298235" stop-color="#293E8A"/>
<stop offset="0.535135" stop-color="#334FA8"/>
<stop offset="1" stop-color="#507DC8"/>
</linearGradient>
</defs>
</svg>
